# MagicaVoxel @ Ephtracy

# group
g cloud_01

# material
mtllib cloud_01.mtl
usemtl palette

# normals
vn -1 0 0
vn 1 0 0
vn 0 0 1
vn 0 0 -1
vn 0 -1 0
vn 0 1 0

# texcoords
vt 0.974609 0.5

# verts
v -10 3 4
v -10 3 -4
v -10 5 4
v -10 5 -4
v -8 1 4
v -8 1 -0
v -8 3 4
v -8 3 -0
v -8 5 1
v -8 5 -4
v -8 8 1
v -8 8 -4
v -6 0 4
v -6 0 -1
v -6 1 4
v -6 1 -0
v -6 2 -1
v -6 2 -4
v -6 3 -0
v -6 3 -4
v 1 0 -1
v 1 0 -4
v 1 2 -1
v 1 2 -3
v 1 2 -4
v -4 0 4
v -4 0 3
v -4 3 3
v -4 3 1
v -4 5 4
v -4 5 1
v -3 0 3
v -3 0 2
v -3 1 3
v -3 1 2
v -3 2 -3
v -3 2 -4
v -3 3 1
v -3 3 -0
v -3 6 -0
v -3 6 -3
v -3 8 1
v -3 8 -4
v -2 0 2
v -2 0 1
v -2 1 2
v -2 1 1
v 4 0 1
v 4 0 -0
v 4 1 3
v 4 1 2
v 4 1 1
v 4 1 -0
v 4 2 2
v 4 2 -0
v 4 3 3
v 4 3 -0
v 6 2 -0
v 6 2 -3
v 6 6 -0
v 6 6 -3
v 8 0 -1
v 8 0 -4
v 8 2 -1
v 8 2 -4
v 10 0 -0
v 10 0 -1
v 10 1 2
v 10 1 -0
v 10 2 2
v 10 2 -1
v -10 3 4
v -10 5 4
v -8 1 4
v -8 3 4
v -6 0 4
v -6 1 4
v -4 0 4
v -4 5 4
v -4 0 3
v -4 3 3
v -3 0 3
v -3 1 3
v 4 1 3
v 4 3 3
v -3 0 2
v -3 1 2
v -2 0 2
v -2 1 2
v 4 1 2
v 4 2 2
v 10 1 2
v 10 2 2
v -8 5 1
v -8 8 1
v -4 3 1
v -4 5 1
v -3 3 1
v -3 8 1
v -2 0 1
v -2 1 1
v 4 0 1
v 4 1 1
v -3 3 -0
v -3 6 -0
v 4 0 -0
v 4 1 -0
v 4 2 -0
v 4 3 -0
v 6 2 -0
v 6 6 -0
v 10 0 -0
v 10 1 -0
v -8 1 -0
v -8 3 -0
v -6 1 -0
v -6 3 -0
v -6 0 -1
v -6 2 -1
v 1 0 -1
v 1 2 -1
v 8 0 -1
v 8 2 -1
v 10 0 -1
v 10 2 -1
v -3 2 -3
v -3 6 -3
v 1 2 -3
v 6 2 -3
v 6 6 -3
v -10 3 -4
v -10 5 -4
v -8 5 -4
v -8 8 -4
v -6 2 -4
v -6 3 -4
v -3 2 -4
v -3 8 -4
v 1 0 -4
v 1 2 -4
v 8 0 -4
v 8 2 -4
v -6 0 4
v -4 0 4
v -4 0 3
v -3 0 3
v -3 0 2
v -2 0 2
v -2 0 1
v 4 0 1
v 4 0 -0
v 10 0 -0
v -6 0 -1
v 1 0 -1
v 8 0 -1
v 10 0 -1
v 1 0 -4
v 8 0 -4
v -8 1 4
v -6 1 4
v -3 1 3
v 4 1 3
v -3 1 2
v -2 1 2
v 4 1 2
v 10 1 2
v -2 1 1
v 4 1 1
v -8 1 -0
v -6 1 -0
v 4 1 -0
v 10 1 -0
v -6 2 -1
v 1 2 -1
v -3 2 -3
v 1 2 -3
v -6 2 -4
v -3 2 -4
v -10 3 4
v -8 3 4
v -8 3 -0
v -6 3 -0
v -10 3 -4
v -6 3 -4
v 4 2 2
v 10 2 2
v 4 2 -0
v 6 2 -0
v 8 2 -1
v 10 2 -1
v 1 2 -3
v 6 2 -3
v 1 2 -4
v 8 2 -4
v -4 3 3
v 4 3 3
v -4 3 1
v -3 3 1
v -3 3 -0
v 4 3 -0
v -10 5 4
v -4 5 4
v -8 5 1
v -4 5 1
v -10 5 -4
v -8 5 -4
v -3 6 -0
v 6 6 -0
v -3 6 -3
v 6 6 -3
v -8 8 1
v -3 8 1
v -8 8 -4
v -3 8 -4

# faces
f 3/1/1 2/1/1 1/1/1
f 4/1/1 2/1/1 3/1/1
f 7/1/1 6/1/1 5/1/1
f 8/1/1 6/1/1 7/1/1
f 11/1/1 10/1/1 9/1/1
f 12/1/1 10/1/1 11/1/1
f 15/1/1 14/1/1 13/1/1
f 16/1/1 14/1/1 15/1/1
f 17/1/1 14/1/1 16/1/1
f 19/1/1 17/1/1 16/1/1
f 19/1/1 18/1/1 17/1/1
f 20/1/1 18/1/1 19/1/1
f 23/1/1 22/1/1 21/1/1
f 24/1/1 22/1/1 23/1/1
f 25/1/1 22/1/1 24/1/1
f 26/1/2 27/1/2 28/1/2
f 26/1/2 28/1/2 30/1/2
f 28/1/2 29/1/2 30/1/2
f 30/1/2 29/1/2 31/1/2
f 32/1/2 33/1/2 34/1/2
f 34/1/2 33/1/2 35/1/2
f 38/1/2 39/1/2 40/1/2
f 36/1/2 37/1/2 41/1/2
f 38/1/2 40/1/2 42/1/2
f 40/1/2 41/1/2 42/1/2
f 41/1/2 37/1/2 43/1/2
f 42/1/2 41/1/2 43/1/2
f 44/1/2 45/1/2 46/1/2
f 46/1/2 45/1/2 47/1/2
f 48/1/2 49/1/2 52/1/2
f 52/1/2 49/1/2 53/1/2
f 50/1/2 51/1/2 54/1/2
f 50/1/2 54/1/2 56/1/2
f 54/1/2 55/1/2 56/1/2
f 56/1/2 55/1/2 57/1/2
f 58/1/2 59/1/2 60/1/2
f 60/1/2 59/1/2 61/1/2
f 62/1/2 63/1/2 64/1/2
f 64/1/2 63/1/2 65/1/2
f 66/1/2 67/1/2 69/1/2
f 68/1/2 69/1/2 70/1/2
f 69/1/2 67/1/2 71/1/2
f 70/1/2 69/1/2 71/1/2
f 75/1/3 73/1/3 72/1/3
f 77/1/3 75/1/3 74/1/3
f 78/1/3 77/1/3 76/1/3
f 79/1/3 73/1/3 75/1/3
f 79/1/3 77/1/3 78/1/3
f 79/1/3 75/1/3 77/1/3
f 82/1/3 81/1/3 80/1/3
f 83/1/3 81/1/3 82/1/3
f 84/1/3 81/1/3 83/1/3
f 85/1/3 81/1/3 84/1/3
f 88/1/3 87/1/3 86/1/3
f 89/1/3 87/1/3 88/1/3
f 92/1/3 91/1/3 90/1/3
f 93/1/3 91/1/3 92/1/3
f 97/1/3 95/1/3 94/1/3
f 98/1/3 97/1/3 96/1/3
f 99/1/3 95/1/3 97/1/3
f 99/1/3 97/1/3 98/1/3
f 102/1/3 101/1/3 100/1/3
f 103/1/3 101/1/3 102/1/3
f 109/1/3 105/1/3 104/1/3
f 110/1/3 109/1/3 108/1/3
f 111/1/3 105/1/3 109/1/3
f 111/1/3 109/1/3 110/1/3
f 112/1/3 107/1/3 106/1/3
f 113/1/3 107/1/3 112/1/3
f 114/1/4 115/1/4 116/1/4
f 116/1/4 115/1/4 117/1/4
f 118/1/4 119/1/4 120/1/4
f 120/1/4 119/1/4 121/1/4
f 122/1/4 123/1/4 124/1/4
f 124/1/4 123/1/4 125/1/4
f 126/1/4 127/1/4 128/1/4
f 128/1/4 127/1/4 129/1/4
f 129/1/4 127/1/4 130/1/4
f 131/1/4 132/1/4 133/1/4
f 131/1/4 133/1/4 136/1/4
f 133/1/4 134/1/4 136/1/4
f 135/1/4 136/1/4 137/1/4
f 136/1/4 134/1/4 138/1/4
f 137/1/4 136/1/4 138/1/4
f 139/1/4 140/1/4 141/1/4
f 141/1/4 140/1/4 142/1/4
f 145/1/5 144/1/5 143/1/5
f 147/1/5 146/1/5 145/1/5
f 149/1/5 148/1/5 147/1/5
f 151/1/5 150/1/5 149/1/5
f 153/1/5 145/1/5 143/1/5
f 153/1/5 152/1/5 151/1/5
f 153/1/5 151/1/5 149/1/5
f 153/1/5 149/1/5 147/1/5
f 153/1/5 147/1/5 145/1/5
f 154/1/5 152/1/5 153/1/5
f 155/1/5 152/1/5 154/1/5
f 156/1/5 152/1/5 155/1/5
f 157/1/5 155/1/5 154/1/5
f 158/1/5 155/1/5 157/1/5
f 163/1/5 162/1/5 161/1/5
f 164/1/5 162/1/5 163/1/5
f 165/1/5 162/1/5 164/1/5
f 167/1/5 166/1/5 165/1/5
f 167/1/5 165/1/5 164/1/5
f 168/1/5 166/1/5 167/1/5
f 169/1/5 160/1/5 159/1/5
f 170/1/5 160/1/5 169/1/5
f 171/1/5 166/1/5 168/1/5
f 172/1/5 166/1/5 171/1/5
f 175/1/5 174/1/5 173/1/5
f 176/1/5 174/1/5 175/1/5
f 177/1/5 175/1/5 173/1/5
f 178/1/5 175/1/5 177/1/5
f 181/1/5 180/1/5 179/1/5
f 183/1/5 181/1/5 179/1/5
f 183/1/5 182/1/5 181/1/5
f 184/1/5 182/1/5 183/1/5
f 185/1/6 186/1/6 187/1/6
f 187/1/6 186/1/6 188/1/6
f 188/1/6 186/1/6 189/1/6
f 189/1/6 186/1/6 190/1/6
f 188/1/6 189/1/6 192/1/6
f 191/1/6 192/1/6 193/1/6
f 192/1/6 189/1/6 194/1/6
f 193/1/6 192/1/6 194/1/6
f 195/1/6 196/1/6 197/1/6
f 197/1/6 196/1/6 198/1/6
f 198/1/6 196/1/6 199/1/6
f 199/1/6 196/1/6 200/1/6
f 201/1/6 202/1/6 203/1/6
f 203/1/6 202/1/6 204/1/6
f 201/1/6 203/1/6 205/1/6
f 205/1/6 203/1/6 206/1/6
f 207/1/6 208/1/6 209/1/6
f 209/1/6 208/1/6 210/1/6
f 211/1/6 212/1/6 213/1/6
f 213/1/6 212/1/6 214/1/6
