# MagicaVoxel @ Ephtracy

# group
g corridor_01

# material
mtllib corridor_01.mtl
usemtl palette

# normals
vn -1 0 0
vn 1 0 0
vn 0 0 1
vn 0 0 -1
vn 0 -1 0
vn 0 1 0

# texcoords
vt 0.943359 0.5
vt 0.986328 0.5

# verts
v -13 0 30
v -13 0 -30
v -13 50 30
v -13 50 -30
v 9 1 -15
v 9 1 -20
v 9 3 -15
v 9 3 -20
v 10 1 -12
v 10 1 -15
v 10 2 -12
v 10 2 -15
v 10 3 -16
v 10 3 -19
v 10 4 -16
v 10 4 -19
v 12 1 30
v 12 1 -12
v 12 1 -20
v 12 1 -30
v 12 2 -12
v 12 2 -15
v 12 3 -15
v 12 3 -16
v 12 3 -19
v 12 3 -20
v 12 4 -16
v 12 4 -19
v 12 49 30
v 12 49 -30
v -12 1 30
v -12 1 15
v -12 1 -0
v -12 1 -30
v -12 2 15
v -12 2 14
v -12 5 14
v -12 5 6
v -12 5 3
v -12 5 -0
v -12 7 6
v -12 7 3
v -12 49 30
v -12 49 -30
v -10 1 2
v -10 1 -0
v -10 2 3
v -10 2 2
v -10 5 3
v -10 5 -0
v -9 2 4
v -9 2 3
v -9 6 6
v -9 6 4
v -9 7 6
v -9 7 3
v -8 2 14
v -8 2 4
v -8 5 14
v -8 5 6
v -8 6 6
v -8 6 4
v -7 1 15
v -7 1 2
v -7 2 15
v -7 2 2
v 13 0 30
v 13 0 -30
v 13 50 30
v 13 50 -30
v -13 0 30
v -13 50 30
v -12 1 30
v -12 49 30
v 12 1 30
v 12 49 30
v 13 0 30
v 13 50 30
v -12 1 15
v -12 2 15
v -7 1 15
v -7 2 15
v -12 2 14
v -12 5 14
v -8 2 14
v -8 5 14
v -12 5 6
v -12 7 6
v -9 6 6
v -9 7 6
v -8 5 6
v -8 6 6
v 10 1 -12
v 10 2 -12
v 12 1 -12
v 12 2 -12
v 9 1 -15
v 9 3 -15
v 10 1 -15
v 10 2 -15
v 12 2 -15
v 12 3 -15
v 10 3 -16
v 10 4 -16
v 12 3 -16
v 12 4 -16
v -9 2 4
v -9 6 4
v -8 2 4
v -8 6 4
v -12 5 3
v -12 7 3
v -10 2 3
v -10 5 3
v -9 2 3
v -9 7 3
v -10 1 2
v -10 2 2
v -7 1 2
v -7 2 2
v -12 1 -0
v -12 5 -0
v -10 1 -0
v -10 5 -0
v 10 3 -19
v 10 4 -19
v 12 3 -19
v 12 4 -19
v 9 1 -20
v 9 3 -20
v 12 1 -20
v 12 3 -20
v -13 0 -30
v -13 50 -30
v -12 1 -30
v -12 49 -30
v 12 1 -30
v 12 49 -30
v 13 0 -30
v 13 50 -30
v -13 0 30
v 13 0 30
v -13 0 -30
v 13 0 -30
v -12 49 30
v 12 49 30
v -12 49 -30
v 12 49 -30
v -12 1 30
v 12 1 30
v -12 1 15
v -7 1 15
v -10 1 2
v -7 1 2
v -12 1 -0
v -10 1 -0
v 10 1 -12
v 12 1 -12
v 9 1 -15
v 10 1 -15
v 9 1 -20
v 12 1 -20
v -12 1 -30
v 12 1 -30
v -12 2 15
v -7 2 15
v -12 2 14
v -8 2 14
v -9 2 4
v -8 2 4
v -10 2 3
v -9 2 3
v -10 2 2
v -7 2 2
v 10 2 -12
v 12 2 -12
v 10 2 -15
v 12 2 -15
v 9 3 -15
v 12 3 -15
v 10 3 -16
v 12 3 -16
v 10 3 -19
v 12 3 -19
v 9 3 -20
v 12 3 -20
v 10 4 -16
v 12 4 -16
v 10 4 -19
v 12 4 -19
v -12 5 14
v -8 5 14
v -12 5 6
v -8 5 6
v -12 5 3
v -10 5 3
v -12 5 -0
v -10 5 -0
v -9 6 6
v -8 6 6
v -9 6 4
v -8 6 4
v -12 7 6
v -9 7 6
v -12 7 3
v -9 7 3
v -13 50 30
v 13 50 30
v -13 50 -30
v 13 50 -30

# faces
f 3/1/1 2/1/1 1/1/1
f 4/1/1 2/1/1 3/1/1
f 7/2/1 6/2/1 5/2/1
f 8/2/1 6/2/1 7/2/1
f 11/2/1 10/2/1 9/2/1
f 12/2/1 10/2/1 11/2/1
f 15/2/1 14/2/1 13/2/1
f 16/2/1 14/2/1 15/2/1
f 21/1/1 18/1/1 17/1/1
f 23/1/1 22/1/1 21/1/1
f 26/1/1 20/1/1 19/1/1
f 27/1/1 24/1/1 23/1/1
f 28/1/1 26/1/1 25/1/1
f 29/1/1 27/1/1 23/1/1
f 29/1/1 28/1/1 27/1/1
f 29/1/1 21/1/1 17/1/1
f 29/1/1 23/1/1 21/1/1
f 30/1/1 26/1/1 28/1/1
f 30/1/1 28/1/1 29/1/1
f 30/1/1 20/1/1 26/1/1
f 31/1/2 32/1/2 35/1/2
f 35/1/2 36/1/2 37/1/2
f 33/1/2 34/1/2 40/1/2
f 37/1/2 38/1/2 41/1/2
f 39/1/2 40/1/2 42/1/2
f 37/1/2 41/1/2 43/1/2
f 41/1/2 42/1/2 43/1/2
f 31/1/2 35/1/2 43/1/2
f 35/1/2 37/1/2 43/1/2
f 42/1/2 40/1/2 44/1/2
f 43/1/2 42/1/2 44/1/2
f 40/1/2 34/1/2 44/1/2
f 45/2/2 46/2/2 48/2/2
f 47/2/2 48/2/2 49/2/2
f 48/2/2 46/2/2 50/2/2
f 49/2/2 48/2/2 50/2/2
f 51/2/2 52/2/2 54/2/2
f 53/2/2 54/2/2 55/2/2
f 54/2/2 52/2/2 56/2/2
f 55/2/2 54/2/2 56/2/2
f 57/2/2 58/2/2 59/2/2
f 59/2/2 58/2/2 60/2/2
f 60/2/2 58/2/2 61/2/2
f 61/2/2 58/2/2 62/2/2
f 63/2/2 64/2/2 65/2/2
f 65/2/2 64/2/2 66/2/2
f 67/1/2 68/1/2 69/1/2
f 69/1/2 68/1/2 70/1/2
f 73/1/3 72/1/3 71/1/3
f 74/1/3 72/1/3 73/1/3
f 75/1/3 73/1/3 71/1/3
f 76/1/3 72/1/3 74/1/3
f 77/1/3 75/1/3 71/1/3
f 77/1/3 76/1/3 75/1/3
f 78/1/3 72/1/3 76/1/3
f 78/1/3 76/1/3 77/1/3
f 81/2/3 80/2/3 79/2/3
f 82/2/3 80/2/3 81/2/3
f 85/2/3 84/2/3 83/2/3
f 86/2/3 84/2/3 85/2/3
f 89/2/3 88/2/3 87/2/3
f 90/2/3 88/2/3 89/2/3
f 91/2/3 89/2/3 87/2/3
f 92/2/3 89/2/3 91/2/3
f 95/2/3 94/2/3 93/2/3
f 96/2/3 94/2/3 95/2/3
f 99/2/3 98/2/3 97/2/3
f 100/2/3 98/2/3 99/2/3
f 101/2/3 98/2/3 100/2/3
f 102/2/3 98/2/3 101/2/3
f 105/2/3 104/2/3 103/2/3
f 106/2/3 104/2/3 105/2/3
f 107/2/4 108/2/4 109/2/4
f 109/2/4 108/2/4 110/2/4
f 111/2/4 112/2/4 114/2/4
f 113/2/4 114/2/4 115/2/4
f 114/2/4 112/2/4 116/2/4
f 115/2/4 114/2/4 116/2/4
f 117/2/4 118/2/4 119/2/4
f 119/2/4 118/2/4 120/2/4
f 121/2/4 122/2/4 123/2/4
f 123/2/4 122/2/4 124/2/4
f 125/2/4 126/2/4 127/2/4
f 127/2/4 126/2/4 128/2/4
f 129/2/4 130/2/4 131/2/4
f 131/2/4 130/2/4 132/2/4
f 133/1/4 134/1/4 135/1/4
f 135/1/4 134/1/4 136/1/4
f 133/1/4 135/1/4 137/1/4
f 136/1/4 134/1/4 138/1/4
f 133/1/4 137/1/4 139/1/4
f 137/1/4 138/1/4 139/1/4
f 138/1/4 134/1/4 140/1/4
f 139/1/4 138/1/4 140/1/4
f 143/1/5 142/1/5 141/1/5
f 144/1/5 142/1/5 143/1/5
f 147/1/5 146/1/5 145/1/5
f 148/1/5 146/1/5 147/1/5
f 149/1/6 150/1/6 151/1/6
f 151/1/6 150/1/6 152/1/6
f 152/1/6 150/1/6 154/1/6
f 153/1/6 154/1/6 156/1/6
f 154/1/6 150/1/6 157/1/6
f 155/1/6 156/1/6 157/1/6
f 156/1/6 154/1/6 157/1/6
f 157/1/6 150/1/6 158/1/6
f 155/1/6 157/1/6 159/1/6
f 159/1/6 157/1/6 160/1/6
f 155/1/6 159/1/6 161/1/6
f 155/1/6 161/1/6 163/1/6
f 161/1/6 162/1/6 163/1/6
f 163/1/6 162/1/6 164/1/6
f 165/2/6 166/2/6 167/2/6
f 167/2/6 166/2/6 168/2/6
f 168/2/6 166/2/6 170/2/6
f 169/2/6 170/2/6 172/2/6
f 171/2/6 172/2/6 173/2/6
f 170/2/6 166/2/6 174/2/6
f 173/2/6 172/2/6 174/2/6
f 172/2/6 170/2/6 174/2/6
f 175/2/6 176/2/6 177/2/6
f 177/2/6 176/2/6 178/2/6
f 179/2/6 180/2/6 181/2/6
f 181/2/6 180/2/6 182/2/6
f 179/2/6 181/2/6 183/2/6
f 179/2/6 183/2/6 185/2/6
f 183/2/6 184/2/6 185/2/6
f 185/2/6 184/2/6 186/2/6
f 187/2/6 188/2/6 189/2/6
f 189/2/6 188/2/6 190/2/6
f 191/2/6 192/2/6 193/2/6
f 193/2/6 192/2/6 194/2/6
f 195/2/6 196/2/6 197/2/6
f 197/2/6 196/2/6 198/2/6
f 199/2/6 200/2/6 201/2/6
f 201/2/6 200/2/6 202/2/6
f 203/2/6 204/2/6 205/2/6
f 205/2/6 204/2/6 206/2/6
f 207/1/6 208/1/6 209/1/6
f 209/1/6 208/1/6 210/1/6
