# MagicaVoxel @ Ephtracy

# group
g heaven_sign

# material
mtllib heaven_sign.mtl
usemtl palette

# normals
vn -1 0 0
vn 1 0 0
vn 0 0 1
vn 0 0 -1
vn 0 -1 0
vn 0 1 0

# texcoords
vt 0.787109 0.5
vt 0.970703 0.5
vt 0.994141 0.5

# verts
v -13 0 0.5
v -13 0 -0.5
v -13 16 0.5
v -13 16 -0.5
v 13 0 0.5
v 13 0 -0.5
v 13 16 0.5
v 13 16 -0.5
v -13 0 0.5
v -13 16 0.5
v -12 3 0.5
v -12 4 0.5
v -12 10 0.5
v -12 15 0.5
v -11 2 0.5
v -11 3 0.5
v -11 10 0.5
v -11 12 0.5
v -11 13 0.5
v -11 15 0.5
v -10 1 0.5
v -10 2 0.5
v -10 4 0.5
v -10 9 0.5
v -10 10 0.5
v -10 12 0.5
v -10 13 0.5
v -10 15 0.5
v -9 1 0.5
v -9 2 0.5
v -9 4 0.5
v -9 9 0.5
v -9 10 0.5
v -9 15 0.5
v -8 2 0.5
v -8 3 0.5
v -8 10 0.5
v -8 15 0.5
v -7 3 0.5
v -7 4 0.5
v -7 11 0.5
v -7 12 0.5
v -7 13 0.5
v -7 14 0.5
v -6 12 0.5
v -6 13 0.5
v -5 10 0.5
v -5 11 0.5
v -5 14 0.5
v -5 15 0.5
v -4 3 0.5
v -4 4 0.5
v -4 10 0.5
v -4 14 0.5
v -3 2 0.5
v -3 3 0.5
v -3 4 0.5
v -3 10 0.5
v -3 12 0.5
v -3 13 0.5
v -3 14 0.5
v -3 15 0.5
v -2 1 0.5
v -2 2 0.5
v -2 3 0.5
v -2 10 0.5
v -2 12 0.5
v -2 13 0.5
v -2 14 0.5
v -2 15 0.5
v -1 1 0.5
v -1 2 0.5
v -1 3 0.5
v -1 10 0.5
v -1 14 0.5
v 0 2 0.5
v 0 3 0.5
v 0 4 0.5
v 0 11 0.5
v 0 15 0.5
v 1 3 0.5
v 1 4 0.5
v 1 5 0.5
v 1 10 0.5
v 1 11 0.5
v 1 15 0.5
v 2 4 0.5
v 2 5 0.5
v 2 6 0.5
v 2 10 0.5
v 2 11 0.5
v 2 15 0.5
v 3 5 0.5
v 3 6 0.5
v 3 7 0.5
v 3 11 0.5
v 3 15 0.5
v 4 6 0.5
v 4 7 0.5
v 4 8 0.5
v 4 10 0.5
v 4 15 0.5
v 5 7 0.5
v 5 8 0.5
v 5 9 0.5
v 5 11 0.5
v 5 12 0.5
v 5 13 0.5
v 5 14 0.5
v 6 8 0.5
v 6 9 0.5
v 6 12 0.5
v 6 13 0.5
v 7 3 0.5
v 7 4 0.5
v 7 10 0.5
v 7 11 0.5
v 7 14 0.5
v 7 15 0.5
v 8 2 0.5
v 8 3 0.5
v 8 10 0.5
v 8 15 0.5
v 9 1 0.5
v 9 2 0.5
v 9 4 0.5
v 9 9 0.5
v 9 10 0.5
v 9 12 0.5
v 9 14 0.5
v 9 15 0.5
v 10 1 0.5
v 10 2 0.5
v 10 4 0.5
v 10 9 0.5
v 10 11 0.5
v 10 12 0.5
v 10 13 0.5
v 10 14 0.5
v 11 2 0.5
v 11 3 0.5
v 11 10 0.5
v 11 11 0.5
v 11 13 0.5
v 11 15 0.5
v 12 3 0.5
v 12 4 0.5
v 12 10 0.5
v 12 15 0.5
v 13 0 0.5
v 13 16 0.5
v -13 0 -0.5
v -13 16 -0.5
v -12 3 -0.5
v -12 4 -0.5
v -12 10 -0.5
v -12 15 -0.5
v -11 2 -0.5
v -11 3 -0.5
v -11 10 -0.5
v -11 12 -0.5
v -11 13 -0.5
v -11 15 -0.5
v -10 1 -0.5
v -10 2 -0.5
v -10 4 -0.5
v -10 9 -0.5
v -10 10 -0.5
v -10 12 -0.5
v -10 13 -0.5
v -10 15 -0.5
v -9 1 -0.5
v -9 2 -0.5
v -9 4 -0.5
v -9 9 -0.5
v -9 10 -0.5
v -9 15 -0.5
v -8 2 -0.5
v -8 3 -0.5
v -8 10 -0.5
v -8 15 -0.5
v -7 3 -0.5
v -7 4 -0.5
v -7 11 -0.5
v -7 12 -0.5
v -7 13 -0.5
v -7 14 -0.5
v -6 12 -0.5
v -6 13 -0.5
v -5 10 -0.5
v -5 11 -0.5
v -5 14 -0.5
v -5 15 -0.5
v -4 3 -0.5
v -4 4 -0.5
v -4 10 -0.5
v -4 14 -0.5
v -3 2 -0.5
v -3 3 -0.5
v -3 4 -0.5
v -3 10 -0.5
v -3 12 -0.5
v -3 13 -0.5
v -3 14 -0.5
v -3 15 -0.5
v -2 1 -0.5
v -2 2 -0.5
v -2 3 -0.5
v -2 10 -0.5
v -2 12 -0.5
v -2 13 -0.5
v -2 14 -0.5
v -2 15 -0.5
v -1 1 -0.5
v -1 2 -0.5
v -1 3 -0.5
v -1 10 -0.5
v -1 14 -0.5
v 0 2 -0.5
v 0 3 -0.5
v 0 4 -0.5
v 0 11 -0.5
v 0 15 -0.5
v 1 3 -0.5
v 1 4 -0.5
v 1 5 -0.5
v 1 10 -0.5
v 1 11 -0.5
v 1 15 -0.5
v 2 4 -0.5
v 2 5 -0.5
v 2 6 -0.5
v 2 10 -0.5
v 2 11 -0.5
v 2 15 -0.5
v 3 5 -0.5
v 3 6 -0.5
v 3 7 -0.5
v 3 11 -0.5
v 3 15 -0.5
v 4 6 -0.5
v 4 7 -0.5
v 4 8 -0.5
v 4 10 -0.5
v 4 15 -0.5
v 5 7 -0.5
v 5 8 -0.5
v 5 9 -0.5
v 5 11 -0.5
v 5 12 -0.5
v 5 13 -0.5
v 5 14 -0.5
v 6 8 -0.5
v 6 9 -0.5
v 6 12 -0.5
v 6 13 -0.5
v 7 3 -0.5
v 7 4 -0.5
v 7 10 -0.5
v 7 11 -0.5
v 7 14 -0.5
v 7 15 -0.5
v 8 2 -0.5
v 8 3 -0.5
v 8 10 -0.5
v 8 15 -0.5
v 9 1 -0.5
v 9 2 -0.5
v 9 4 -0.5
v 9 9 -0.5
v 9 10 -0.5
v 9 12 -0.5
v 9 14 -0.5
v 9 15 -0.5
v 10 1 -0.5
v 10 2 -0.5
v 10 4 -0.5
v 10 9 -0.5
v 10 11 -0.5
v 10 12 -0.5
v 10 13 -0.5
v 10 14 -0.5
v 11 2 -0.5
v 11 3 -0.5
v 11 10 -0.5
v 11 11 -0.5
v 11 13 -0.5
v 11 15 -0.5
v 12 3 -0.5
v 12 4 -0.5
v 12 10 -0.5
v 12 15 -0.5
v 13 0 -0.5
v 13 16 -0.5
v -13 0 0.5
v 13 0 0.5
v -13 0 -0.5
v 13 0 -0.5
v -13 16 0.5
v 13 16 0.5
v -13 16 -0.5
v 13 16 -0.5

# faces
f 3/2/1 2/2/1 1/2/1
f 4/2/1 2/2/1 3/2/1
f 5/2/2 6/2/2 7/2/2
f 7/2/2 6/2/2 8/2/2
f 11/2/3 10/2/3 9/2/3
f 12/2/3 10/2/3 11/2/3
f 13/2/3 10/2/3 12/2/3
f 14/2/3 10/2/3 13/2/3
f 15/2/3 11/2/3 9/2/3
f 16/3/3 12/3/3 11/3/3
f 16/2/3 11/2/3 15/2/3
f 17/2/3 13/2/3 12/2/3
f 17/3/3 14/3/3 13/3/3
f 18/3/3 14/3/3 17/3/3
f 19/3/3 14/3/3 18/3/3
f 20/2/3 10/2/3 14/2/3
f 20/3/3 14/3/3 19/3/3
f 21/2/3 15/2/3 9/2/3
f 22/3/3 16/3/3 15/3/3
f 22/2/3 15/2/3 21/2/3
f 23/3/3 12/3/3 16/3/3
f 23/3/3 16/3/3 22/3/3
f 23/2/3 17/2/3 12/2/3
f 23/2/3 18/2/3 17/2/3
f 24/2/3 18/2/3 23/2/3
f 25/2/3 18/2/3 24/2/3
f 26/3/3 19/3/3 18/3/3
f 26/2/3 18/2/3 25/2/3
f 27/2/3 20/2/3 19/2/3
f 27/3/3 19/3/3 26/3/3
f 28/2/3 10/2/3 20/2/3
f 28/2/3 20/2/3 27/2/3
f 29/3/3 22/3/3 21/3/3
f 29/2/3 21/2/3 9/2/3
f 29/3/3 23/3/3 22/3/3
f 29/3/3 24/3/3 23/3/3
f 30/3/3 24/3/3 29/3/3
f 31/3/3 24/3/3 30/3/3
f 32/2/3 25/2/3 24/2/3
f 32/3/3 24/3/3 31/3/3
f 33/3/3 27/3/3 26/3/3
f 33/2/3 25/2/3 32/2/3
f 33/3/3 28/3/3 27/3/3
f 33/3/3 26/3/3 25/3/3
f 34/2/3 10/2/3 28/2/3
f 34/3/3 28/3/3 33/3/3
f 35/3/3 31/3/3 30/3/3
f 35/2/3 30/2/3 29/2/3
f 36/3/3 31/3/3 35/3/3
f 37/2/3 32/2/3 31/2/3
f 37/2/3 33/2/3 32/2/3
f 37/2/3 34/2/3 33/2/3
f 38/2/3 10/2/3 34/2/3
f 38/2/3 34/2/3 37/2/3
f 39/3/3 31/3/3 36/3/3
f 39/2/3 36/2/3 35/2/3
f 40/2/3 37/2/3 31/2/3
f 40/3/3 31/3/3 39/3/3
f 41/3/3 38/3/3 37/3/3
f 42/3/3 38/3/3 41/3/3
f 43/3/3 38/3/3 42/3/3
f 44/3/3 38/3/3 43/3/3
f 45/2/3 42/2/3 41/2/3
f 45/3/3 43/3/3 42/3/3
f 46/2/3 44/2/3 43/2/3
f 46/3/3 43/3/3 45/3/3
f 47/2/3 37/2/3 40/2/3
f 47/2/3 40/2/3 39/2/3
f 47/3/3 41/3/3 37/3/3
f 48/2/3 46/2/3 45/2/3
f 48/3/3 41/3/3 47/3/3
f 48/2/3 45/2/3 41/2/3
f 49/2/3 44/2/3 46/2/3
f 49/2/3 46/2/3 48/2/3
f 49/3/3 38/3/3 44/3/3
f 50/2/3 10/2/3 38/2/3
f 50/3/3 38/3/3 49/3/3
f 51/2/3 39/2/3 35/2/3
f 51/2/3 49/2/3 48/2/3
f 51/2/3 50/2/3 49/2/3
f 51/2/3 47/2/3 39/2/3
f 51/2/3 48/2/3 47/2/3
f 52/2/3 50/2/3 51/2/3
f 53/2/3 50/2/3 52/2/3
f 54/2/3 50/2/3 53/2/3
f 55/2/3 35/2/3 29/2/3
f 55/2/3 51/2/3 35/2/3
f 56/1/3 52/1/3 51/1/3
f 56/2/3 51/2/3 55/2/3
f 57/2/3 53/2/3 52/2/3
f 57/1/3 52/1/3 56/1/3
f 58/3/3 54/3/3 53/3/3
f 58/2/3 53/2/3 57/2/3
f 59/3/3 54/3/3 58/3/3
f 60/3/3 54/3/3 59/3/3
f 61/2/3 50/2/3 54/2/3
f 61/3/3 54/3/3 60/3/3
f 62/2/3 10/2/3 50/2/3
f 62/2/3 50/2/3 61/2/3
f 63/2/3 29/2/3 9/2/3
f 63/2/3 55/2/3 29/2/3
f 64/1/3 56/1/3 55/1/3
f 64/2/3 55/2/3 63/2/3
f 65/2/3 57/2/3 56/2/3
f 65/1/3 56/1/3 64/1/3
f 65/2/3 58/2/3 57/2/3
f 65/2/3 59/2/3 58/2/3
f 66/2/3 59/2/3 65/2/3
f 67/3/3 60/3/3 59/3/3
f 67/2/3 59/2/3 66/2/3
f 68/2/3 61/2/3 60/2/3
f 68/3/3 60/3/3 67/3/3
f 69/3/3 62/3/3 61/3/3
f 69/2/3 61/2/3 68/2/3
f 70/2/3 10/2/3 62/2/3
f 70/3/3 62/3/3 69/3/3
f 71/1/3 64/1/3 63/1/3
f 71/2/3 63/2/3 9/2/3
f 72/2/3 66/2/3 65/2/3
f 72/1/3 64/1/3 71/1/3
f 72/2/3 65/2/3 64/2/3
f 73/2/3 66/2/3 72/2/3
f 74/3/3 67/3/3 66/3/3
f 74/2/3 66/2/3 73/2/3
f 74/3/3 69/3/3 68/3/3
f 74/3/3 68/3/3 67/3/3
f 75/2/3 70/2/3 69/2/3
f 75/3/3 69/3/3 74/3/3
f 76/1/3 73/1/3 72/1/3
f 76/2/3 72/2/3 71/2/3
f 77/2/3 75/2/3 74/2/3
f 77/1/3 73/1/3 76/1/3
f 77/2/3 74/2/3 73/2/3
f 78/2/3 75/2/3 77/2/3
f 79/2/3 75/2/3 78/2/3
f 80/2/3 70/2/3 75/2/3
f 80/2/3 75/2/3 79/2/3
f 80/2/3 10/2/3 70/2/3
f 81/1/3 78/1/3 77/1/3
f 81/2/3 77/2/3 76/2/3
f 82/2/3 79/2/3 78/2/3
f 82/1/3 78/1/3 81/1/3
f 83/2/3 79/2/3 82/2/3
f 84/2/3 79/2/3 83/2/3
f 85/3/3 80/3/3 79/3/3
f 85/2/3 79/2/3 84/2/3
f 86/2/3 10/2/3 80/2/3
f 86/3/3 80/3/3 85/3/3
f 87/2/3 82/2/3 81/2/3
f 87/1/3 83/1/3 82/1/3
f 88/2/3 84/2/3 83/2/3
f 88/1/3 83/1/3 87/1/3
f 89/2/3 84/2/3 88/2/3
f 90/3/3 85/3/3 84/3/3
f 90/2/3 84/2/3 89/2/3
f 91/2/3 86/2/3 85/2/3
f 91/3/3 85/3/3 90/3/3
f 92/2/3 10/2/3 86/2/3
f 92/2/3 86/2/3 91/2/3
f 93/1/3 89/1/3 88/1/3
f 93/2/3 88/2/3 87/2/3
f 94/2/3 91/2/3 90/2/3
f 94/1/3 89/1/3 93/1/3
f 94/2/3 90/2/3 89/2/3
f 95/2/3 91/2/3 94/2/3
f 96/3/3 92/3/3 91/3/3
f 96/2/3 91/2/3 95/2/3
f 97/2/3 10/2/3 92/2/3
f 97/3/3 92/3/3 96/3/3
f 98/1/3 95/1/3 94/1/3
f 98/2/3 94/2/3 93/2/3
f 99/2/3 96/2/3 95/2/3
f 99/1/3 95/1/3 98/1/3
f 99/2/3 97/2/3 96/2/3
f 100/2/3 97/2/3 99/2/3
f 101/2/3 97/2/3 100/2/3
f 102/2/3 10/2/3 97/2/3
f 102/2/3 97/2/3 101/2/3
f 103/2/3 99/2/3 98/2/3
f 103/1/3 100/1/3 99/1/3
f 104/2/3 101/2/3 100/2/3
f 104/1/3 100/1/3 103/1/3
f 105/2/3 101/2/3 104/2/3
f 106/3/3 102/3/3 101/3/3
f 107/3/3 102/3/3 106/3/3
f 108/3/3 102/3/3 107/3/3
f 109/3/3 102/3/3 108/3/3
f 110/2/3 104/2/3 103/2/3
f 110/1/3 105/1/3 104/1/3
f 111/2/3 101/2/3 105/2/3
f 111/1/3 105/1/3 110/1/3
f 112/2/3 107/2/3 106/2/3
f 112/3/3 108/3/3 107/3/3
f 113/2/3 109/2/3 108/2/3
f 113/3/3 108/3/3 112/3/3
f 114/2/3 81/2/3 76/2/3
f 114/2/3 98/2/3 93/2/3
f 114/2/3 87/2/3 81/2/3
f 114/2/3 111/2/3 110/2/3
f 114/2/3 93/2/3 87/2/3
f 114/2/3 103/2/3 98/2/3
f 114/2/3 110/2/3 103/2/3
f 115/2/3 111/2/3 114/2/3
f 116/2/3 101/2/3 111/2/3
f 116/2/3 111/2/3 115/2/3
f 116/3/3 106/3/3 101/3/3
f 117/2/3 113/2/3 112/2/3
f 117/3/3 106/3/3 116/3/3
f 117/2/3 112/2/3 106/2/3
f 118/2/3 109/2/3 113/2/3
f 118/2/3 113/2/3 117/2/3
f 118/3/3 102/3/3 109/3/3
f 119/2/3 10/2/3 102/2/3
f 119/3/3 102/3/3 118/3/3
f 120/2/3 76/2/3 71/2/3
f 120/2/3 114/2/3 76/2/3
f 121/3/3 115/3/3 114/3/3
f 121/2/3 114/2/3 120/2/3
f 122/2/3 117/2/3 116/2/3
f 122/2/3 116/2/3 115/2/3
f 122/2/3 119/2/3 118/2/3
f 122/2/3 118/2/3 117/2/3
f 123/2/3 10/2/3 119/2/3
f 123/2/3 119/2/3 122/2/3
f 124/2/3 71/2/3 9/2/3
f 124/2/3 120/2/3 71/2/3
f 125/3/3 121/3/3 120/3/3
f 125/2/3 120/2/3 124/2/3
f 126/3/3 115/3/3 121/3/3
f 126/3/3 121/3/3 125/3/3
f 126/2/3 122/2/3 115/2/3
f 127/2/3 122/2/3 126/2/3
f 128/3/3 123/3/3 122/3/3
f 128/2/3 122/2/3 127/2/3
f 129/3/3 123/3/3 128/3/3
f 130/3/3 123/3/3 129/3/3
f 131/2/3 10/2/3 123/2/3
f 131/3/3 123/3/3 130/3/3
f 132/3/3 125/3/3 124/3/3
f 132/3/3 127/3/3 126/3/3
f 132/2/3 124/2/3 9/2/3
f 132/3/3 126/3/3 125/3/3
f 133/3/3 127/3/3 132/3/3
f 134/3/3 127/3/3 133/3/3
f 135/2/3 129/2/3 128/2/3
f 135/3/3 127/3/3 134/3/3
f 135/2/3 128/2/3 127/2/3
f 136/2/3 129/2/3 135/2/3
f 137/3/3 130/3/3 129/3/3
f 137/2/3 129/2/3 136/2/3
f 138/3/3 130/3/3 137/3/3
f 139/2/3 131/2/3 130/2/3
f 139/3/3 130/3/3 138/3/3
f 140/3/3 134/3/3 133/3/3
f 140/2/3 133/2/3 132/2/3
f 141/3/3 134/3/3 140/3/3
f 142/2/3 136/2/3 135/2/3
f 142/2/3 135/2/3 134/2/3
f 143/3/3 138/3/3 137/3/3
f 143/2/3 136/2/3 142/2/3
f 143/3/3 137/3/3 136/3/3
f 144/2/3 139/2/3 138/2/3
f 144/3/3 138/3/3 143/3/3
f 145/2/3 10/2/3 131/2/3
f 145/2/3 139/2/3 144/2/3
f 145/2/3 131/2/3 139/2/3
f 146/3/3 134/3/3 141/3/3
f 146/2/3 141/2/3 140/2/3
f 147/2/3 142/2/3 134/2/3
f 147/3/3 134/3/3 146/3/3
f 148/3/3 144/3/3 143/3/3
f 148/2/3 142/2/3 147/2/3
f 148/3/3 143/3/3 142/3/3
f 148/3/3 145/3/3 144/3/3
f 149/2/3 10/2/3 145/2/3
f 149/3/3 145/3/3 148/3/3
f 150/2/3 147/2/3 146/2/3
f 150/2/3 146/2/3 140/2/3
f 150/2/3 149/2/3 148/2/3
f 150/2/3 132/2/3 9/2/3
f 150/2/3 140/2/3 132/2/3
f 150/2/3 148/2/3 147/2/3
f 151/2/3 10/2/3 149/2/3
f 151/2/3 149/2/3 150/2/3
f 152/2/4 153/2/4 154/2/4
f 154/2/4 153/2/4 155/2/4
f 155/2/4 153/2/4 156/2/4
f 156/2/4 153/2/4 157/2/4
f 152/2/4 154/2/4 158/2/4
f 154/3/4 155/3/4 159/3/4
f 158/2/4 154/2/4 159/2/4
f 155/2/4 156/2/4 160/2/4
f 156/3/4 157/3/4 160/3/4
f 160/3/4 157/3/4 161/3/4
f 161/3/4 157/3/4 162/3/4
f 157/2/4 153/2/4 163/2/4
f 162/3/4 157/3/4 163/3/4
f 152/2/4 158/2/4 164/2/4
f 158/3/4 159/3/4 165/3/4
f 164/2/4 158/2/4 165/2/4
f 159/3/4 155/3/4 166/3/4
f 165/3/4 159/3/4 166/3/4
f 155/2/4 160/2/4 166/2/4
f 160/2/4 161/2/4 166/2/4
f 166/2/4 161/2/4 167/2/4
f 167/2/4 161/2/4 168/2/4
f 161/3/4 162/3/4 169/3/4
f 168/2/4 161/2/4 169/2/4
f 162/2/4 163/2/4 170/2/4
f 169/3/4 162/3/4 170/3/4
f 163/2/4 153/2/4 171/2/4
f 170/2/4 163/2/4 171/2/4
f 164/3/4 165/3/4 172/3/4
f 152/2/4 164/2/4 172/2/4
f 165/3/4 166/3/4 172/3/4
f 166/3/4 167/3/4 172/3/4
f 172/3/4 167/3/4 173/3/4
f 173/3/4 167/3/4 174/3/4
f 167/2/4 168/2/4 175/2/4
f 174/3/4 167/3/4 175/3/4
f 169/3/4 170/3/4 176/3/4
f 175/2/4 168/2/4 176/2/4
f 170/3/4 171/3/4 176/3/4
f 168/3/4 169/3/4 176/3/4
f 171/2/4 153/2/4 177/2/4
f 176/3/4 171/3/4 177/3/4
f 173/3/4 174/3/4 178/3/4
f 172/2/4 173/2/4 178/2/4
f 178/3/4 174/3/4 179/3/4
f 174/2/4 175/2/4 180/2/4
f 175/2/4 176/2/4 180/2/4
f 176/2/4 177/2/4 180/2/4
f 177/2/4 153/2/4 181/2/4
f 180/2/4 177/2/4 181/2/4
f 179/3/4 174/3/4 182/3/4
f 178/2/4 179/2/4 182/2/4
f 174/2/4 180/2/4 183/2/4
f 182/3/4 174/3/4 183/3/4
f 180/3/4 181/3/4 184/3/4
f 184/3/4 181/3/4 185/3/4
f 185/3/4 181/3/4 186/3/4
f 186/3/4 181/3/4 187/3/4
f 184/2/4 185/2/4 188/2/4
f 185/3/4 186/3/4 188/3/4
f 186/2/4 187/2/4 189/2/4
f 188/3/4 186/3/4 189/3/4
f 183/2/4 180/2/4 190/2/4
f 182/2/4 183/2/4 190/2/4
f 180/3/4 184/3/4 190/3/4
f 188/2/4 189/2/4 191/2/4
f 190/3/4 184/3/4 191/3/4
f 184/2/4 188/2/4 191/2/4
f 189/2/4 187/2/4 192/2/4
f 191/2/4 189/2/4 192/2/4
f 187/3/4 181/3/4 192/3/4
f 181/2/4 153/2/4 193/2/4
f 192/3/4 181/3/4 193/3/4
f 178/2/4 182/2/4 194/2/4
f 191/2/4 192/2/4 194/2/4
f 192/2/4 193/2/4 194/2/4
f 182/2/4 190/2/4 194/2/4
f 190/2/4 191/2/4 194/2/4
f 194/2/4 193/2/4 195/2/4
f 195/2/4 193/2/4 196/2/4
f 196/2/4 193/2/4 197/2/4
f 172/2/4 178/2/4 198/2/4
f 178/2/4 194/2/4 198/2/4
f 194/1/4 195/1/4 199/1/4
f 198/2/4 194/2/4 199/2/4
f 195/2/4 196/2/4 200/2/4
f 199/1/4 195/1/4 200/1/4
f 196/3/4 197/3/4 201/3/4
f 200/2/4 196/2/4 201/2/4
f 201/3/4 197/3/4 202/3/4
f 202/3/4 197/3/4 203/3/4
f 197/2/4 193/2/4 204/2/4
f 203/3/4 197/3/4 204/3/4
f 193/2/4 153/2/4 205/2/4
f 204/2/4 193/2/4 205/2/4
f 152/2/4 172/2/4 206/2/4
f 172/2/4 198/2/4 206/2/4
f 198/1/4 199/1/4 207/1/4
f 206/2/4 198/2/4 207/2/4
f 199/2/4 200/2/4 208/2/4
f 207/1/4 199/1/4 208/1/4
f 200/2/4 201/2/4 208/2/4
f 201/2/4 202/2/4 208/2/4
f 208/2/4 202/2/4 209/2/4
f 202/3/4 203/3/4 210/3/4
f 209/2/4 202/2/4 210/2/4
f 203/2/4 204/2/4 211/2/4
f 210/3/4 203/3/4 211/3/4
f 204/3/4 205/3/4 212/3/4
f 211/2/4 204/2/4 212/2/4
f 205/2/4 153/2/4 213/2/4
f 212/3/4 205/3/4 213/3/4
f 206/1/4 207/1/4 214/1/4
f 152/2/4 206/2/4 214/2/4
f 208/2/4 209/2/4 215/2/4
f 214/1/4 207/1/4 215/1/4
f 207/2/4 208/2/4 215/2/4
f 215/2/4 209/2/4 216/2/4
f 209/3/4 210/3/4 217/3/4
f 216/2/4 209/2/4 217/2/4
f 211/3/4 212/3/4 217/3/4
f 210/3/4 211/3/4 217/3/4
f 212/2/4 213/2/4 218/2/4
f 217/3/4 212/3/4 218/3/4
f 215/1/4 216/1/4 219/1/4
f 214/2/4 215/2/4 219/2/4
f 217/2/4 218/2/4 220/2/4
f 219/1/4 216/1/4 220/1/4
f 216/2/4 217/2/4 220/2/4
f 220/2/4 218/2/4 221/2/4
f 221/2/4 218/2/4 222/2/4
f 218/2/4 213/2/4 223/2/4
f 222/2/4 218/2/4 223/2/4
f 213/2/4 153/2/4 223/2/4
f 220/1/4 221/1/4 224/1/4
f 219/2/4 220/2/4 224/2/4
f 221/2/4 222/2/4 225/2/4
f 224/1/4 221/1/4 225/1/4
f 225/2/4 222/2/4 226/2/4
f 226/2/4 222/2/4 227/2/4
f 222/3/4 223/3/4 228/3/4
f 227/2/4 222/2/4 228/2/4
f 223/2/4 153/2/4 229/2/4
f 228/3/4 223/3/4 229/3/4
f 224/2/4 225/2/4 230/2/4
f 225/1/4 226/1/4 230/1/4
f 226/2/4 227/2/4 231/2/4
f 230/1/4 226/1/4 231/1/4
f 231/2/4 227/2/4 232/2/4
f 227/3/4 228/3/4 233/3/4
f 232/2/4 227/2/4 233/2/4
f 228/2/4 229/2/4 234/2/4
f 233/3/4 228/3/4 234/3/4
f 229/2/4 153/2/4 235/2/4
f 234/2/4 229/2/4 235/2/4
f 231/1/4 232/1/4 236/1/4
f 230/2/4 231/2/4 236/2/4
f 233/2/4 234/2/4 237/2/4
f 236/1/4 232/1/4 237/1/4
f 232/2/4 233/2/4 237/2/4
f 237/2/4 234/2/4 238/2/4
f 234/3/4 235/3/4 239/3/4
f 238/2/4 234/2/4 239/2/4
f 235/2/4 153/2/4 240/2/4
f 239/3/4 235/3/4 240/3/4
f 237/1/4 238/1/4 241/1/4
f 236/2/4 237/2/4 241/2/4
f 238/2/4 239/2/4 242/2/4
f 241/1/4 238/1/4 242/1/4
f 239/2/4 240/2/4 242/2/4
f 242/2/4 240/2/4 243/2/4
f 243/2/4 240/2/4 244/2/4
f 240/2/4 153/2/4 245/2/4
f 244/2/4 240/2/4 245/2/4
f 241/2/4 242/2/4 246/2/4
f 242/1/4 243/1/4 246/1/4
f 243/2/4 244/2/4 247/2/4
f 246/1/4 243/1/4 247/1/4
f 247/2/4 244/2/4 248/2/4
f 244/3/4 245/3/4 249/3/4
f 249/3/4 245/3/4 250/3/4
f 250/3/4 245/3/4 251/3/4
f 251/3/4 245/3/4 252/3/4
f 246/2/4 247/2/4 253/2/4
f 247/1/4 248/1/4 253/1/4
f 248/2/4 244/2/4 254/2/4
f 253/1/4 248/1/4 254/1/4
f 249/2/4 250/2/4 255/2/4
f 250/3/4 251/3/4 255/3/4
f 251/2/4 252/2/4 256/2/4
f 255/3/4 251/3/4 256/3/4
f 219/2/4 224/2/4 257/2/4
f 236/2/4 241/2/4 257/2/4
f 224/2/4 230/2/4 257/2/4
f 253/2/4 254/2/4 257/2/4
f 230/2/4 236/2/4 257/2/4
f 241/2/4 246/2/4 257/2/4
f 246/2/4 253/2/4 257/2/4
f 257/2/4 254/2/4 258/2/4
f 254/2/4 244/2/4 259/2/4
f 258/2/4 254/2/4 259/2/4
f 244/3/4 249/3/4 259/3/4
f 255/2/4 256/2/4 260/2/4
f 259/3/4 249/3/4 260/3/4
f 249/2/4 255/2/4 260/2/4
f 256/2/4 252/2/4 261/2/4
f 260/2/4 256/2/4 261/2/4
f 252/3/4 245/3/4 261/3/4
f 245/2/4 153/2/4 262/2/4
f 261/3/4 245/3/4 262/3/4
f 214/2/4 219/2/4 263/2/4
f 219/2/4 257/2/4 263/2/4
f 257/3/4 258/3/4 264/3/4
f 263/2/4 257/2/4 264/2/4
f 259/2/4 260/2/4 265/2/4
f 258/2/4 259/2/4 265/2/4
f 261/2/4 262/2/4 265/2/4
f 260/2/4 261/2/4 265/2/4
f 262/2/4 153/2/4 266/2/4
f 265/2/4 262/2/4 266/2/4
f 152/2/4 214/2/4 267/2/4
f 214/2/4 263/2/4 267/2/4
f 263/3/4 264/3/4 268/3/4
f 267/2/4 263/2/4 268/2/4
f 264/3/4 258/3/4 269/3/4
f 268/3/4 264/3/4 269/3/4
f 258/2/4 265/2/4 269/2/4
f 269/2/4 265/2/4 270/2/4
f 265/3/4 266/3/4 271/3/4
f 270/2/4 265/2/4 271/2/4
f 271/3/4 266/3/4 272/3/4
f 272/3/4 266/3/4 273/3/4
f 266/2/4 153/2/4 274/2/4
f 273/3/4 266/3/4 274/3/4
f 267/3/4 268/3/4 275/3/4
f 269/3/4 270/3/4 275/3/4
f 152/2/4 267/2/4 275/2/4
f 268/3/4 269/3/4 275/3/4
f 275/3/4 270/3/4 276/3/4
f 276/3/4 270/3/4 277/3/4
f 271/2/4 272/2/4 278/2/4
f 277/3/4 270/3/4 278/3/4
f 270/2/4 271/2/4 278/2/4
f 278/2/4 272/2/4 279/2/4
f 272/3/4 273/3/4 280/3/4
f 279/2/4 272/2/4 280/2/4
f 280/3/4 273/3/4 281/3/4
f 273/2/4 274/2/4 282/2/4
f 281/3/4 273/3/4 282/3/4
f 276/3/4 277/3/4 283/3/4
f 275/2/4 276/2/4 283/2/4
f 283/3/4 277/3/4 284/3/4
f 278/2/4 279/2/4 285/2/4
f 277/2/4 278/2/4 285/2/4
f 280/3/4 281/3/4 286/3/4
f 285/2/4 279/2/4 286/2/4
f 279/3/4 280/3/4 286/3/4
f 281/2/4 282/2/4 287/2/4
f 286/3/4 281/3/4 287/3/4
f 274/2/4 153/2/4 288/2/4
f 287/2/4 282/2/4 288/2/4
f 282/2/4 274/2/4 288/2/4
f 284/3/4 277/3/4 289/3/4
f 283/2/4 284/2/4 289/2/4
f 277/2/4 285/2/4 290/2/4
f 289/3/4 277/3/4 290/3/4
f 286/3/4 287/3/4 291/3/4
f 290/2/4 285/2/4 291/2/4
f 285/3/4 286/3/4 291/3/4
f 287/3/4 288/3/4 291/3/4
f 288/2/4 153/2/4 292/2/4
f 291/3/4 288/3/4 292/3/4
f 289/2/4 290/2/4 293/2/4
f 283/2/4 289/2/4 293/2/4
f 291/2/4 292/2/4 293/2/4
f 152/2/4 275/2/4 293/2/4
f 275/2/4 283/2/4 293/2/4
f 290/2/4 291/2/4 293/2/4
f 292/2/4 153/2/4 294/2/4
f 293/2/4 292/2/4 294/2/4
f 297/2/5 296/2/5 295/2/5
f 298/2/5 296/2/5 297/2/5
f 299/2/6 300/2/6 301/2/6
f 301/2/6 300/2/6 302/2/6
